<svg width="54" height="16" viewBox="0 0 54 16" fill="none" xmlns="http://www.w3.org/2000/svg">
<path fill-rule="evenodd" clip-rule="evenodd" d="M6.99175 0L6.50148 0.47192L0.333496 14.3535V15.3595L0.921949 15.9289H2.10646L2.60148 15.4469L4.09003 11.766L4.17491 11.7255H11.4254L11.51 11.766L12.9982 15.4487L13.4977 15.9289H14.6781L15.2668 15.3595V14.3535L9.09916 0.47192L8.60889 0H6.99175ZM7.79684 3.77262L10.3809 9.45606H5.17319L7.79684 3.77262Z" fill="black"/>
<path fill-rule="evenodd" clip-rule="evenodd" d="M51.0531 0L50.5834 0.454232L45.392 10.139L40.7606 0.46459L40.2812 0H38.2496L37.667 0.567866V15.3613L38.2496 15.9289H39.6337L40.2169 15.3613V5.18422L44.0899 13.1304L44.5659 13.5934H46.1667L46.6327 13.141L51.1167 4.96334V15.3601L51.6974 15.9289H53.0835L53.667 15.3613V0.567561L53.0835 0H51.0531Z" fill="black"/>
<path fill-rule="evenodd" clip-rule="evenodd" d="M24.8667 0.558394V15.5174L25.3493 16H26.8155L27.352 15.4943V0.54803L26.804 0H25.3972L24.8667 0.558394Z" fill="black"/>
</svg>
